<?xml version="1.0" standalone="no"?>
<!DOCTYPE svg PUBLIC "-//W3C//DTD SVG 20010904//EN"
 "http://www.w3.org/TR/2001/REC-SVG-20010904/DTD/svg10.dtd">
<svg version="1.0" xmlns="http://www.w3.org/2000/svg"
 width="60.000000pt" height="60.000000pt" viewBox="0 0 60.000000 60.000000"
 preserveAspectRatio="xMidYMid meet">

<g transform="translate(0.000000,60.000000) scale(0.100000,-0.100000)"
fill="#000000" stroke="none">
<path d="M216 528 c-113 -147 -103 -138 -149 -138 -24 0 -48 -5 -55 -12 -21
-21 -14 -57 13 -70 13 -6 26 -22 29 -37 3 -14 13 -66 22 -116 9 -50 21 -96 26
-102 15 -18 381 -18 396 -1 5 7 17 53 26 103 9 50 19 102 22 116 3 15 16 31
29 37 27 13 34 49 13 70 -7 7 -31 12 -55 12 -41 0 -45 3 -86 56 -80 107 -94
120 -114 108 -29 -18 -26 -36 17 -94 22 -29 40 -57 40 -62 0 -4 -40 -8 -90 -8
-50 0 -90 4 -90 8 0 5 18 33 40 62 43 58 47 69 28 88 -19 19 -36 14 -62 -20z
m352 -180 c3 -15 -9 -18 -112 -20 -141 -4 -161 -22 -28 -26 106 -3 99 9 74
-132 l-18 -95 -184 0 -184 0 -18 95 c-25 141 -32 129 75 132 132 4 113 22 -28
26 -86 2 -115 6 -115 16 0 7 3 16 7 19 4 4 124 6 267 5 237 -3 261 -5 264 -20z"/>
<path d="M290 310 c0 -5 5 -10 10 -10 6 0 10 5 10 10 0 6 -4 10 -10 10 -5 0
-10 -4 -10 -10z"/>
<path d="M156 248 c-30 -43 -14 -148 22 -148 31 0 42 22 42 87 0 51 -3 64 -19
73 -26 14 -28 13 -45 -12z m34 -63 c0 -30 -4 -55 -10 -55 -5 0 -10 25 -10 55
0 30 5 55 10 55 6 0 10 -25 10 -55z"/>
<path d="M275 254 c-23 -23 -17 -132 8 -148 12 -8 22 -8 35 0 24 16 30 125 7
148 -9 9 -20 16 -25 16 -5 0 -16 -7 -25 -16z m35 -69 c0 -30 -4 -55 -10 -55
-5 0 -10 25 -10 55 0 30 5 55 10 55 6 0 10 -25 10 -55z"/>
<path d="M391 256 c-18 -22 -10 -136 10 -149 35 -22 49 -2 49 71 0 66 -10 92
-36 92 -6 0 -17 -6 -23 -14z m39 -71 c0 -30 -4 -55 -10 -55 -5 0 -10 25 -10
55 0 30 5 55 10 55 6 0 10 -25 10 -55z"/>
</g>
</svg>
